<svg xmlns="http://www.w3.org/2000/svg" viewBox="0 0 200 200" fill="none">
  <g>
    <path d="M100 20C128.6 20 152 43.4 152 72c0 14.6-6 27.8-15.8 37.2L100 145.4l-36.2-36.2C54 82.8 48 69.6 48 55c0-28.6 23.4-52 52-52z" fill="#FF3C38"/>
    <path d="M164 100c0 35.3-28.7 64-64 64s-64-28.7-64-64c0-9.9 2.3-19.2 6.3-27.6C48.9 83.8 60.5 91 74 91c8.3 0 16-2.7 22-7.3 6 4.6 13.7 7.3 22 7.3 13.5 0 25.1-7.2 31.7-18.6 4 8.4 6.3 17.7 6.3 27.6z" fill="#FF3C38"/>
    <path d="M74 55c0-14.4 11.6-26 26-26s26 11.6 26 26-11.6 26-26 26-26-11.6-26-26z" fill="white"/>
  </g>
</svg>
